<svg id="Layer_1" data-name="Layer 1" xmlns="http://www.w3.org/2000/svg" xmlns:xlink="http://www.w3.org/1999/xlink" width="23" height="23" viewBox="0 0 23 23"><defs><style>.cls-1,.cls-2{fill:none;}.cls-2{clip-rule:evenodd;}.cls-3{isolation:isolate;}.cls-4{clip-path:url(#clip-path);}.cls-5{clip-path:url(#clip-path-2);}.cls-6{fill:#fff;}</style><clipPath id="clip-path"><rect class="cls-1" x="4.79" width="13.42" height="23"/></clipPath><clipPath id="clip-path-2"><path class="cls-2" d="M18,1.07C17.93,0.11,15.65,0,14.35,0A8.67,8.67,0,0,0,9.92,1.07a5.26,5.26,0,0,0-2.6,3.58,21.57,21.57,0,0,0,0,4,16.05,16.05,0,0,1-1.89.09,0.62,0.62,0,0,0-.68.39c0,0.14.23,3.94,0.23,3.94l0.16,1.37a12.19,12.19,0,0,0,2,.14c0.25,0,.34.39,0.37,1.35s0.16,4.63.18,5.38S8.1,22,8.92,22.06l4.17,0.11c0.18,0,.37-0.23.37-0.93s0.23-6.66.25-6.79a1.86,1.86,0,0,1,.91,0c0.41,0,2.37-.14,2.71-0.18s0.48-3.6.48-4.76a1.08,1.08,0,0,0-1.23-1.23c-0.48,0-2.76.07-2.89,0A3.25,3.25,0,0,1,14.87,6,6.81,6.81,0,0,1,17.7,5.9c0.23,0,.39-0.48.41-0.89s0-3-.07-3.94M16.41,8.7a1.93,1.93,0,0,1,.49.51,0.46,0.46,0,0,1-.08.43,5.33,5.33,0,0,1-.47-0.71,0.18,0.18,0,0,1,.06-0.24m1.17-4.3a11.28,11.28,0,0,0-3.37.23,3,3,0,0,0-1.85,2.21,3.75,3.75,0,0,0,.09,1.82l2.42,0.06a3,3,0,0,1,1,.07,15.83,15.83,0,0,1,.91,1.38,0.91,0.91,0,0,1-.14.43,13,13,0,0,0-.91-1.4,0.39,0.39,0,0,0-.1.42c0.1,0.15,1,1.45,1,1.5s-0.11.36-.17,0.28-1-1.75-1.09-1.73a0.34,0.34,0,0,0-.14.38c0.08,0.14,1.14,1.61,1.15,1.69a1.6,1.6,0,0,1-.08.66,17.61,17.61,0,0,0-1.18-1.81c-0.16,0-.22.31-0.13,0.42s1.22,1.77,1.22,1.8a0.39,0.39,0,0,1-.35.13c-0.09-.07-1-1.82-1.11-1.82s-0.34.11-.26,0.24,1,1.55.92,1.56A0.32,0.32,0,0,1,15,12.84a14.74,14.74,0,0,0-.93-1.37c-0.09,0-.26.22-0.17,0.33a6.57,6.57,0,0,1,.8,1.13,1.57,1.57,0,0,1-.58,0A5,5,0,0,0,13.55,12a0.21,0.21,0,0,0-.18.26,6.65,6.65,0,0,1,.38.66,3.22,3.22,0,0,0-1.09.07c0,0.12.06,1,0,.93s-0.51-.95-0.58-0.95a0.39,0.39,0,0,0-.15.38c0,0.11.75,1,.77,1.06a1.94,1.94,0,0,1,0,.67,12.3,12.3,0,0,0-.77-1.26,0.75,0.75,0,0,0-.14.4c0,0.07.93,1.34,1,1.44a3.66,3.66,0,0,1,0,.89c0-.07-1-1.91-1.1-1.9a0.67,0.67,0,0,0-.1.52c0,0.13,1.16,1.82,1.17,1.91a1.39,1.39,0,0,1,0,.51s-1.24-2.22-1.3-2.19a0.78,0.78,0,0,0-.07.49c0,0.14,1.37,2.19,1.38,2.23a4.46,4.46,0,0,1-.06.91s-1.39-2.39-1.47-2.38a0.65,0.65,0,0,0-.08.52c0.06,0.1,1.57,2.25,1.58,2.36a2,2,0,0,1,0,.65c-0.06,0-1.65-2.68-1.71-2.67a0.75,0.75,0,0,0-.11.44c0,0.08,1.8,2.75,1.8,2.84s0,0.17-.11.17a0.39,0.39,0,0,1-.32-0.09c-0.1-.1-1.57-2.52-1.68-2.5a0.67,0.67,0,0,0-.09.54C10.45,19,12,21,12,21s-2.12-.13-2.28-0.13a1,1,0,0,1-.3,0s0.07-.09-0.13-0.3a1,1,0,0,0-.6-0.46,0.18,0.18,0,0,0,0,.3,1.07,1.07,0,0,1,.34.36,2.22,2.22,0,0,1-.91-0.09c0-.08,0-3.35-0.07-4.49s-0.08-2.77-.33-2.94S5.56,13,5.46,12.88a21.9,21.9,0,0,1-.18-3.74A10.76,10.76,0,0,0,7.46,9a0.85,0.85,0,0,0,.32-0.91c0-.41-0.32-3.26.21-4.35A5.77,5.77,0,0,1,11.18,1a10.69,10.69,0,0,1,5-.41c1.39,0.18,1.53.43,1.55,1.09s0,2.74-.16,2.76M8.2,9.07a0.77,0.77,0,0,0-.07.47,2,2,0,0,1-.92,0c-0.18,0-.36,0-0.33.18A0.32,0.32,0,0,0,7,10C7,10,8.43,10,8.57,10a1.47,1.47,0,0,0,.08-0.87c0-.16-0.37-0.1-0.44-0.09m2.12-6.68A4.22,4.22,0,0,0,8.85,3.82a3.27,3.27,0,0,0-.55,1.68,1.19,1.19,0,0,0,.15.8,0.77,0.77,0,0,0,.32,0,7.43,7.43,0,0,1,.59-2.35A2.55,2.55,0,0,1,11,2.63c0.15,0,.13-0.23.09-0.39s-0.39,0-.75.15M13,4.6a1.18,1.18,0,0,0-.7.31A4.37,4.37,0,0,0,11.69,6a0.56,0.56,0,0,0,.08.57,0.35,0.35,0,0,0,.32-0.06c0.08-.06.08-0.51,0.26-0.9a2,2,0,0,1,.8-0.68A0.28,0.28,0,0,0,13,4.6M15.7,1c-0.2,0-.3.35-0.19,0.4a8.6,8.6,0,0,0,1,.17,0.36,0.36,0,0,1,.37.14c0,0.13,0,1.26.07,1.32s0.42,0.17.42-.13a6,6,0,0,0-.09-1.63A9.79,9.79,0,0,0,15.7,1M9.18,19.31c-0.14,0-.18.13-0.06,0.37a4.59,4.59,0,0,0,1,1.07,0.19,0.19,0,0,0,.17-0.28,4.86,4.86,0,0,0-1.11-1.15M10,18.93a0.3,0.3,0,0,0-.21.27l1.07,1.4a0.28,0.28,0,0,0,.38.14c0.13-.07,0-0.27-0.14-0.46S10,19,10,18.93"/></clipPath></defs><title>pgn-social</title><g class="cls-3"><g class="cls-4"><g class="cls-5"><g class="cls-4"><rect class="cls-6" y="-4.79" width="22.92" height="31.76"/></g></g></g></g></svg>