<svg id="Layer_1" data-name="Layer 1" xmlns="http://www.w3.org/2000/svg" xmlns:xlink="http://www.w3.org/1999/xlink" width="23" height="23" viewBox="0 0 23 23"><defs><style>.cls-1,.cls-2{fill:none;}.cls-2{clip-rule:evenodd;}.cls-3{isolation:isolate;}.cls-4{clip-path:url(#clip-path);}.cls-5{clip-path:url(#clip-path-2);}.cls-6{fill:#fff;}</style><clipPath id="clip-path"><rect class="cls-1" y="1.92" width="23" height="19.17"/></clipPath><clipPath id="clip-path-2"><path class="cls-2" d="M22.45,6.21a3.08,3.08,0,0,0,.34-0.84,1.08,1.08,0,0,0-.12-0.81,2.44,2.44,0,0,0-1.27.24,14.33,14.33,0,0,1-1.5.31,6.24,6.24,0,0,0-1.62-2.56,4.25,4.25,0,0,0-3.44-.48,6.5,6.5,0,0,0-3.13,1.74,10,10,0,0,0-1.37,2.87c-0.19.6-.57,1.65-1,1.74a3.4,3.4,0,0,1-1.93-.65A34.8,34.8,0,0,1,4.05,5C3.16,4.22,1.89,2.79,1.47,2.88S0.58,4.46.58,5.52a3.72,3.72,0,0,0,.95,2.1,4.16,4.16,0,0,0,.21,3.09,3.47,3.47,0,0,0,1.15,1.2A3.15,3.15,0,0,0,3,13.5a3.63,3.63,0,0,0,1.07,1.17,4.23,4.23,0,0,1-1.37.67,10.91,10.91,0,0,1-2.61,0,11.84,11.84,0,0,0,0,2.49,1,1,0,0,0,.5.76,23.51,23.51,0,0,0,5.6,2.13,10.89,10.89,0,0,0,7.41-.7c1.86-.81,3.85-3.28,5.14-5.28a22.57,22.57,0,0,0,2.15-4.87A10.21,10.21,0,0,0,22,9.12a2.63,2.63,0,0,0,1-1.93,1.44,1.44,0,0,0-.55-1M20.9,7.36A10.87,10.87,0,0,1,22.09,7a1.62,1.62,0,0,1-.89,1.13A3.08,3.08,0,0,1,20,8.62c-0.12,0-.56-0.89-0.64-0.88a0.32,0.32,0,0,0-.23.3,4.24,4.24,0,0,1,.5.89C19.54,9,19.51,9.08,19.44,9a8.86,8.86,0,0,0-.68-1.11,0.31,0.31,0,0,0-.23.39,7.31,7.31,0,0,1,.7,1.08A1.35,1.35,0,0,1,19,10a14.16,14.16,0,0,0-.92-1.53,0.61,0.61,0,0,0-.22.45c0,0.1,1,1.44,1,1.56a0.86,0.86,0,0,1-.36.59c-0.09-.1-0.89-1.82-1-1.82a0.62,0.62,0,0,0-.28.36c0,0.08,1,1.79,1.06,1.92a1.48,1.48,0,0,1-.31.81c-0.09-.05-0.92-2.13-1-2.14a0.43,0.43,0,0,0-.22.43c0,0.13,1,2,1,2.13a0.44,0.44,0,0,1-.21.39c-0.05,0-1.1-2.63-1.19-2.62a0.48,0.48,0,0,0-.16.57c0.09,0.3,1.15,2.23,1.16,2.39a0.6,0.6,0,0,1-.3.45,26.76,26.76,0,0,0-1.25-2.5,0.56,0.56,0,0,0-.16.57c0.09,0.16,1.23,2.15,1.23,2.22a1,1,0,0,1-.37.49c-0.08,0-1-2.32-1.13-2.31a0.37,0.37,0,0,0-.18.5c0.12,0.26,1.12,2,1.08,2.09a0.69,0.69,0,0,1-.36.41A24.8,24.8,0,0,0,14.73,13a0.4,0.4,0,0,0-.3.46c0.1,0.21,1.25,2.24,1.2,2.3a2.61,2.61,0,0,1-.52.54c-0.06,0-1.16-2.4-1.28-2.36a0.3,0.3,0,0,0-.19.39c0.09,0.17,1.23,2.17,1.2,2.23s-0.31.32-.39,0.23-1.14-2.2-1.25-2.2a0.47,0.47,0,0,0-.28.46,22.57,22.57,0,0,1,1.26,2.14,1,1,0,0,1-.49.36,11.27,11.27,0,0,0-1.2-2,0.32,0.32,0,0,0-.25.41c0.09,0.1,1.06,1.74,1.06,1.74a1,1,0,0,1-.54.19C12.69,17.8,11.91,16,11.83,16s-0.41.21-.27,0.41a8.77,8.77,0,0,1,.85,1.64,0.4,0.4,0,0,1-.4.09c-0.08-.09-0.88-1.88-1-1.88s-0.39.13-.31,0.26,0.9,1.81.86,1.83a1.42,1.42,0,0,1-.62.12,13.93,13.93,0,0,0-.88-1.56,0.26,0.26,0,0,0-.21.27c0,0.09.76,1.38,0.72,1.41a1.84,1.84,0,0,1-.59.07c-0.05,0-.71-1.59-0.81-1.61a0.31,0.31,0,0,0-.28.32,11.83,11.83,0,0,1,.58,1.32,1,1,0,0,1-.57,0,10.47,10.47,0,0,0-.71-1.37c-0.12,0-.32,0-0.24.23a9.36,9.36,0,0,1,.59,1.29,3.32,3.32,0,0,1-.63,0c-0.05,0-.58-1.32-0.67-1.34S6.9,17.36,7,17.53a7.17,7.17,0,0,1,.52,1.15,2.08,2.08,0,0,1-.72-0.19c-0.09-.09-0.57-1.26-0.67-1.28a0.28,0.28,0,0,0-.3.26,5.16,5.16,0,0,1,.37,1,2.42,2.42,0,0,1-.66-0.18A8.12,8.12,0,0,0,4.88,17c-0.09-.05-0.4,0-0.32.16a4.4,4.4,0,0,1,.36.86,12.85,12.85,0,0,1-2.27-.88A5.1,5.1,0,0,1,.85,15.85a7.63,7.63,0,0,0,2.31-.26A10.12,10.12,0,0,0,5,14.8a0.42,0.42,0,0,0-.14-0.35A2.15,2.15,0,0,1,3.5,13.32c-0.23-.79-0.05-1.64-0.19-1.74A2.53,2.53,0,0,1,2.08,10,8.7,8.7,0,0,1,2,7.3,0.47,0.47,0,0,0,1.71,7a2.49,2.49,0,0,1-.57-1.67,4.28,4.28,0,0,1,.43-1.93C1.66,3.43,4,5.66,5.19,6.69A10.33,10.33,0,0,0,8.68,8.93c0.84,0.14,1.19.17,1.58-.64a33.6,33.6,0,0,1,1.43-3.7,5.27,5.27,0,0,1,3.44-2.2,3.34,3.34,0,0,1,3.44,1.08,9.69,9.69,0,0,1,.83,2.17,2.85,2.85,0,0,0,1.67-.22,7.35,7.35,0,0,1,1.17-.36,2,2,0,0,1-.72,1,2.44,2.44,0,0,0-.91,1,0.31,0.31,0,0,0,.31.36M2.2,5.86a1.09,1.09,0,0,1-.08-1C2.18,4.53,1.65,4.6,1.56,5a1.24,1.24,0,0,0,.31,1.15,0.61,0.61,0,0,0,.66.18C2.63,6.23,2.44,6,2.2,5.86M9.43,9.53a2,2,0,0,1-1.17,0A5.2,5.2,0,0,0,7,8.72C6.89,8.77,6.73,9,7.11,9.32A2.69,2.69,0,0,0,8.75,10c0.57,0,.88-0.41.68-0.44M13,5a1.61,1.61,0,0,0-.93.77c-0.26.45-.65,1.32-0.35,1.48s0.3,0,.45-0.52a4.78,4.78,0,0,1,.62-1.26C12.92,5.25,13.09,5,13,5"/></clipPath></defs><title>pgn-social</title><g class="cls-3"><g class="cls-4"><g class="cls-5"><g class="cls-4"><rect class="cls-6" x="-4.79" y="-2.88" width="32.58" height="28.76"/></g></g></g></g></svg>