<svg id="Layer_1" data-name="Layer 1" xmlns="http://www.w3.org/2000/svg" xmlns:xlink="http://www.w3.org/1999/xlink" width="23" height="23" viewBox="0 0 23 23"><defs><style>.cls-1,.cls-2{fill:none;}.cls-2{clip-rule:evenodd;}.cls-3{isolation:isolate;}.cls-4{clip-path:url(#clip-path);}.cls-5{clip-path:url(#clip-path-2);}.cls-6{fill:#fff;}</style><clipPath id="clip-path"><rect class="cls-1" width="23" height="23"/></clipPath><clipPath id="clip-path-2"><path class="cls-2" d="M23.12,11.69c0-2.62-.16-6.32-0.3-6.89A17.61,17.61,0,0,0,20.25,1,4.51,4.51,0,0,0,17.46.19C16.44,0.16,8-.17,5.71.11A6.19,6.19,0,0,0,1.88,1.8,4.07,4.07,0,0,0,.42,3.63,34.89,34.89,0,0,0,0,9.87C0,12.63,0,15.78,0,17.1a5.9,5.9,0,0,0,1.25,3.44,7.34,7.34,0,0,0,2.84,2A8.45,8.45,0,0,0,7.53,23c2.3,0,3.88.16,7,.11s4.33-.17,5.71-0.87A6.22,6.22,0,0,0,23,19.08c0.28-.89.21-4.77,0.16-7.39M17,21.51a0.88,0.88,0,0,1-.52.06c-0.07-.07-0.69-1.41-0.7-1.47a0.76,0.76,0,0,1,.59,0A9.26,9.26,0,0,1,17,21.51M5.25,12.6A5.24,5.24,0,0,0,6.83,16a6,6,0,0,0,3.34,1.49,7.16,7.16,0,0,0,3.33-.56,5.59,5.59,0,0,0,2.44-2.27,9.31,9.31,0,0,0,.72-2.93,5.35,5.35,0,0,1,.13-1.39A26.56,26.56,0,0,1,20,10.27c0.07,0.12.13,4.63,0,5.89s-0.1,2.3-.55,2.65-0.48.5-2,.61-3.67.35-6,.35-5,0-6-.13-1.71-.36-1.78-0.75-0.17-3.07-.24-4.7a17.79,17.79,0,0,1,.08-3.47,6.86,6.86,0,0,1,1.65-.45c0,0.06-.08,1.78,0,2.34m12.13,8.82A12.8,12.8,0,0,1,16.7,20a1.33,1.33,0,0,1,.57,0A7.33,7.33,0,0,1,18,21.22a1.28,1.28,0,0,1-.65.2M18.87,21a0.92,0.92,0,0,1-.42.14s-0.63-1.18-.67-1.21a0.9,0.9,0,0,1,.53,0A3.35,3.35,0,0,1,18.87,21m0.36-.2a7,7,0,0,1-.51-0.92,0.77,0.77,0,0,1,.49-0.17,6.34,6.34,0,0,1,.45.75,1.42,1.42,0,0,1-.43.33M20,20.16a2.07,2.07,0,0,1-.4-0.68A2.06,2.06,0,0,1,20,19.17a2.24,2.24,0,0,1,.37.44,1.39,1.39,0,0,1-.4.56m0.62-1a1.06,1.06,0,0,1-.38-0.49,1.62,1.62,0,0,1,.12-0.62,3.76,3.76,0,0,1,.55.56,1.22,1.22,0,0,1-.29.55m0.81-6.68c-0.07,2.5,0,3.73-.11,4.5a2.43,2.43,0,0,1-.3,1.2,2.85,2.85,0,0,1-.51-0.75c0-.08.06-2,0.07-3.55s0-4.07,0-4.52a0.66,0.66,0,0,0-.46-0.74c-0.3-.06-2.32-0.08-3.37-0.07a4.3,4.3,0,0,0-1.39.07,1.48,1.48,0,0,0,0,.74,5.6,5.6,0,0,1,.18.6A10,10,0,0,1,15,13.33a4.37,4.37,0,0,1-2.64,2.55,4.92,4.92,0,0,1-4,.25A3.59,3.59,0,0,1,6,14a10.32,10.32,0,0,1-.3-3.26,2,2,0,0,1,.31-1.34,0.58,0.58,0,0,0,.29-0.43,0.78,0.78,0,0,0-.69-0.32,17.57,17.57,0,0,0-2.34-.12,0.8,0.8,0,0,0-1,.49c-0.17.45,0.15,4.51,0.23,6.45s0.19,3,.68,3.64a2.06,2.06,0,0,0,1.57,1,20.78,20.78,0,0,0,3.35.25c1.34,0,4.61-.13,5.41-0.13s1.8-.06,1.82,0A10.4,10.4,0,0,1,16,21.59a0.8,0.8,0,0,1-.5,0,7.17,7.17,0,0,0-.74-1.28,0.48,0.48,0,0,0-.38.18c0,0.07.67,1.08,0.62,1.11a2.22,2.22,0,0,1-.69,0c-0.06,0-.45-1.17-0.54-1.17a0.5,0.5,0,0,0-.31.07c0,0.06.4,1,.36,1a1.23,1.23,0,0,1-.46,0,10.84,10.84,0,0,0-.51-1.06,0.44,0.44,0,0,0-.27.15,9.31,9.31,0,0,1,.26.93,3.5,3.5,0,0,1-.61,0,4.78,4.78,0,0,0-.39-0.82,0.4,0.4,0,0,0-.35.2,2.75,2.75,0,0,1,.25.67c-0.07,0-2.7.12-4.85,0s-3,.1-3.84-0.32A5.65,5.65,0,0,1,.86,19a14.47,14.47,0,0,1-.37-4.63c0.08-1.63-.07-3.88,0-6.08s-0.06-5,1.64-6.2A9.54,9.54,0,0,1,4.14,1,3.64,3.64,0,0,1,5.93.7c0.16,0.16.3,0.83,0.42,0.84s0.37,0,.32-0.19A2.9,2.9,0,0,1,6.41.67a0.92,0.92,0,0,1,.36,0A6,6,0,0,1,7.7,2.09C7.89,2.62,7.89,2.6,8,2.6a0.17,0.17,0,0,0,.17-0.21,5.32,5.32,0,0,0-.49-1.26A1.18,1.18,0,0,1,7.35.58a0.48,0.48,0,0,1,.4,0A12.8,12.8,0,0,1,8.73,2a1.23,1.23,0,0,0,.3.57c0.11,0,.25-0.06.17-0.27a7.6,7.6,0,0,0-.58-1.21A1.18,1.18,0,0,1,8.29.5,1.73,1.73,0,0,1,9,.54c0.08,0.1.86,1.59,1.13,2.19a3.5,3.5,0,0,0,.52,1.06c0.11,0,.2-0.06.15-0.16S10,1.79,9.73,1.22a0.94,0.94,0,0,1-.2-0.7,1.15,1.15,0,0,1,.53,0c0.1,0.07.7,1.42,1.16,2.32a9,9,0,0,0,.92,1.63,0.13,0.13,0,0,0,.07-0.23c-0.08-.12-1-2.15-1.15-2.53A3.32,3.32,0,0,1,10.62.53a0.77,0.77,0,0,1,.5.06,23.13,23.13,0,0,1,1.32,2.57A4.75,4.75,0,0,0,13,4.42a0.11,0.11,0,0,0,.1-0.12s-0.57-1.64-.9-2.38A3.65,3.65,0,0,1,11.68.67a1,1,0,0,1,.63,0c0.06,0.1,1,2.12,1.27,2.63a3.22,3.22,0,0,0,.44.87c0.07,0,.14-0.11.07-0.27s-0.82-2.2-1-2.65-0.27-.62-0.2-0.62a0.45,0.45,0,0,1,.42.08c0.06,0.14,1.34,3,1.39,3.07a0.15,0.15,0,0,0,.15-0.13c0-.07-0.82-2.14-1-2.49s-0.2-.5-0.09-0.51a2.17,2.17,0,0,1,.58,0s0.89,2,1,2,0.15,0,.15-0.19A13.52,13.52,0,0,0,14.88,1c-0.06-.12-0.15-0.25-0.06-0.26s0.64,0,.64,0a4.17,4.17,0,0,0,.58,1,0.22,0.22,0,0,0,.23-0.31A2.78,2.78,0,0,1,16,.72a0.86,0.86,0,0,1,.43,0A5.69,5.69,0,0,0,17.13,2a0.19,0.19,0,0,0,.23-0.2c0-.09-0.57-1.11-0.51-1.11a1.42,1.42,0,0,1,.58,0,3.86,3.86,0,0,0,.64,1,0.2,0.2,0,0,0,.23-0.24,4.31,4.31,0,0,1-.34-0.8,0.31,0.31,0,0,1,.31.1C18.34,1,19,2.46,19,2.46a0.32,0.32,0,0,0,.24-0.3A8.14,8.14,0,0,1,18.79.85a0.6,0.6,0,0,1,.57.26,3.75,3.75,0,0,0,.37.67c0.11,0,.27-0.15.33-0.13A3.25,3.25,0,0,1,21,3.93c0.06,1.47.5,6.05,0.43,8.55M4.59,1.83a4.41,4.41,0,0,0-1.84.81A3.3,3.3,0,0,0,1.59,4.38a4.79,4.79,0,0,0,.06,1.17,0.56,0.56,0,0,0,.44,0,1.06,1.06,0,0,0,0-.68A2.51,2.51,0,0,1,2.6,3.6,4.12,4.12,0,0,1,4,2.47,6.44,6.44,0,0,0,4.86,2.2c0.1-.11,0-0.36-0.26-0.37M15.24,6.35a2.74,2.74,0,0,1-.07-1c0-.11-0.5-0.16-0.5,0a9.46,9.46,0,0,0,0,1.53A2.57,2.57,0,0,0,15.76,7c0.21,0,.12-0.3.09-0.44a1.18,1.18,0,0,0-.62-0.18m3.2-3.94a15.74,15.74,0,0,0-2.5.07,2,2,0,0,0-.2,1.34,13.08,13.08,0,0,0,.12,2c0.25,0.29,2.68.19,3,.09S19,3.78,19,3.27a0.87,0.87,0,0,0-.57-0.86m0,3.06a11.22,11.22,0,0,1-1.68,0,7.05,7.05,0,0,1,0-1.74,4.86,4.86,0,0,1,1.78,0,5.17,5.17,0,0,1-.11,1.78m-9,2c0.24-.06.13-0.37,0-0.42a2.3,2.3,0,0,0-1.3.51A2.87,2.87,0,0,0,7,8.88a1.25,1.25,0,0,0,0,.7l0.36,0A6.71,6.71,0,0,1,8,8.37a3.53,3.53,0,0,1,1.51-.89m1.19,0.15A3.05,3.05,0,0,0,8.17,8.76c-0.77.93-.76,3-0.46,3.94s1.77,1.58,2.34,1.71,2.75-.29,3.34-1.32a5,5,0,0,0,.11-3.68,3,3,0,0,0-2.82-1.78M13,12.83a3.74,3.74,0,0,1-2.62,1.09c-1,0-2-.56-1.82-1.75a3.07,3.07,0,0,1,1.2-2.12,3.59,3.59,0,0,1,1.91-.9,1.11,1.11,0,0,1,1.4.7c0.31,0.75.46,2.43-.08,3"/></clipPath></defs><title>pgn-social</title><g class="cls-3"><g class="cls-4"><g class="cls-5"><g class="cls-4"><rect class="cls-6" x="-5" y="-5" width="33.16" height="33.15"/></g></g></g></g></svg>