<?xml version="1.0" encoding="UTF-8" standalone="no"?>
<svg width="148px" height="92px" viewBox="0 0 148 92" version="1.1" xmlns="http://www.w3.org/2000/svg" xmlns:xlink="http://www.w3.org/1999/xlink">
    <!-- Generator: Sketch 3.6.1 (26313) - http://www.bohemiancoding.com/sketch -->
    <title>LOGO STACK</title>
    <desc>Created with Sketch.</desc>
    <defs>
        <path id="path-1" d="M147.66932,31.6851979 L147.66932,0.217424211 L9.76897691e-05,0.217424211 L9.76897691e-05,31.6851979 L147.66932,31.6851979 L147.66932,31.6851979 Z"></path>
        <path id="path-3" d="M0,0.00695052632 L0,31.4747242 L131.111295,31.4747242 L131.111295,0.00695052632 L1.32394325e-20,0.00695052632 L0,0.00695052632 Z"></path>
    </defs>
    <g id="Welcome" stroke="none" stroke-width="1" fill="none" fill-rule="evenodd">
        <g id="Desktop-HD" transform="translate(-40.000000, -140.000000)">
            <g id="LOGO-STACK" transform="translate(40.000000, 140.000000)">
                <g id="Group-3" transform="translate(0.000000, 0.272147)">
                    <mask id="mask-2" fill="white">
                        <use xlink:href="#path-1"></use>
                    </mask>
                    <g id="Clip-2"></g>
                    <path d="M147.669418,0.713750526 L139.991979,0.713750526 L139.991979,17.4904611 L128.253088,0.713750526 L120.823781,0.713750526 L120.823781,31.1888716 L128.500731,31.1888716 L128.500731,13.3705611 L141.230197,31.1888716 L147.669418,31.1888716 L147.669418,0.713750526 Z M101.581339,10.14444 L104.70155,18.7307874 L98.4606389,18.7307874 L101.581339,10.14444 Z M97.6185531,0.713750526 L86.0286389,31.1888716 L93.9038997,31.1888716 L96.0335366,25.2828821 L107.079319,25.2828821 L109.258289,31.1888716 L117.33186,31.1888716 L105.741946,0.713750526 L97.6185531,0.713750526 Z M77.0294574,20.8653821 C76.2865267,23.1982137 74.3053782,24.6871926 71.2838337,24.6871926 C66.9254046,24.6871926 64.2506587,21.1629821 64.2506587,15.9515558 C64.2506587,10.8889295 66.7764277,7.21591895 71.1846785,7.21591895 C74.0577347,7.21591895 75.6920845,8.60553474 76.5341703,10.9383663 L84.6570746,10.9383663 C83.5180119,4.73428737 79.0106059,0.217424211 71.1846785,0.217424211 C62.467332,0.217424211 56.2264211,6.66966632 56.2264211,15.9515558 C56.2264211,25.2334453 62.467332,31.6851979 71.2838337,31.6851979 C79.3574046,31.6851979 84.9047182,26.3748979 84.9047182,17.9368611 L84.9047182,14.9094663 L72.3242297,14.9094663 L72.3242297,20.8653821 L77.0294574,20.8653821 Z M39.6538403,10.14444 L42.7740515,18.7307874 L36.533629,18.7307874 L39.6538403,10.14444 Z M35.6915432,0.713750526 L24.1011406,31.1888716 L31.9764013,31.1888716 L34.1065267,25.2828821 L45.1518205,25.2828821 L47.3312792,31.1888716 L55.4043617,31.1888716 L43.8144475,0.713750526 L35.6915432,0.713750526 Z M16.6425267,11.2364558 C16.6425267,13.5193611 15.3544871,15.0582663 12.4819195,15.0582663 L7.87535842,15.0582663 L7.87535842,7.41464526 L12.4819195,7.41464526 C15.3544871,7.41464526 16.6425267,8.90362421 16.6425267,11.2364558 L16.6425267,11.2364558 Z M13.3240053,21.7092347 C19.9112264,21.7092347 24.369299,17.9867874 24.369299,11.2364558 C24.369299,4.43619789 19.9112264,0.713750526 13.3240053,0.713750526 L9.76897691e-05,0.713750526 L9.76897691e-05,31.1888716 L7.87535842,31.1888716 L7.87535842,21.7092347 L13.3240053,21.7092347 Z" id="Fill-1" fill="#494445" mask="url(#mask-2)"></path>
                </g>
                <g id="Group-6" transform="translate(0.000000, 40.408989)">
                    <mask id="mask-4" fill="white">
                        <use xlink:href="#path-3"></use>
                    </mask>
                    <g id="Clip-5"></g>
                    <path d="M113.181315,7.20417158 L118.134675,7.20417158 C120.95742,7.20417158 122.245949,8.64322421 122.245949,10.8766926 C122.245949,13.1106505 120.95742,14.5497032 118.134675,14.5497032 L113.181315,14.5497032 L113.181315,7.20417158 Z M115.955704,20.9030716 L122.294793,30.9783979 L131.111295,30.9783979 L123.978965,20.0592189 C127.693618,18.6696032 130.021566,15.4929189 130.021566,10.8766926 C130.021566,4.22572421 125.51416,0.503276842 118.976272,0.503276842 L105.306054,0.503276842 L105.306054,30.9783979 L113.181315,30.9783979 L113.181315,20.9030716 L115.955704,20.9030716 Z M77.9358231,0.503276842 L77.9358231,30.9783979 L99.6791234,30.9783979 L99.6791234,24.0797558 L85.761262,24.0797558 L85.761262,18.8184032 L98.4907274,18.8184032 L98.4907274,12.1179979 L85.761262,12.1179979 L85.761262,7.35297158 L99.6791234,7.35297158 L99.6791234,0.503276842 L77.9358231,0.503276842 Z M46.3698165,30.9783979 L57.861064,30.9783979 C67.4204964,30.9783979 73.2154535,25.0229716 73.2154535,15.7410821 C73.2154535,6.45919263 67.4204964,0.503276842 57.861064,0.503276842 L46.3698165,0.503276842 L46.3698165,30.9783979 Z M54.1957439,24.0797558 L54.1957439,7.35297158 L57.464932,7.35297158 C62.5169584,7.35297158 65.3401927,10.5790926 65.3401927,15.7410821 C65.3401927,20.8536347 62.5169584,24.0797558 57.464932,24.0797558 L54.1957439,24.0797558 Z M32.3381465,30.9783979 L40.3125624,30.9783979 L40.3125624,0.503276842 L32.3381465,0.503276842 L32.3381465,30.9783979 Z M-9.76897691e-05,15.7410821 C-9.76897691e-05,24.9730453 6.0918363,31.4747242 14.6113611,31.4747242 C22.1896449,31.4747242 26.6477175,26.9583505 27.7369584,20.7043453 L19.8123644,20.7043453 C19.0201003,22.98774 17.385262,24.4767189 14.6113611,24.4767189 C10.400932,24.4767189 8.02365149,20.7043453 8.02365149,15.7410821 C8.02365149,10.7278926 10.400932,7.00544526 14.6113611,7.00544526 C17.385262,7.00544526 19.0201003,8.49442421 19.8123644,10.7278926 L27.7369584,10.7278926 C26.6477175,4.52381368 22.1896449,0.00695052632 14.6113611,0.00695052632 C6.0918363,0.00695052632 -9.76897691e-05,6.50911895 -9.76897691e-05,15.7410821 L-9.76897691e-05,15.7410821 Z" id="Fill-4" fill="#494445" mask="url(#mask-4)"></path>
                </g>
                <path d="M87.4451231,82.1138726 L89.2812418,86.9386158 L85.6090044,86.9386158 L87.4451231,82.1138726 Z M86.7842283,80.3126472 L82.3773636,91.6119803 L83.845719,91.6119803 L85.1319912,88.2064117 L89.7771377,88.2064117 L91.0813934,91.6119803 L92.5501984,91.6119803 L88.1433337,80.3126472 L86.7842283,80.3126472 Z M77.3626555,91.6119803 L78.8116786,91.6119803 L78.8116786,80.3126472 L77.3626555,80.3126472 L77.3626555,91.6119803 Z M72.8424945,80.3126472 L71.4672039,80.3126472 L71.4672039,88.9060874 L65.4589056,80.3126472 L64.0831654,80.3126472 L64.0831654,91.6119803 L65.4773387,91.6119803 L65.4773387,82.6310829 L71.7787686,91.6119803 L72.8424945,91.6119803 L72.8424945,80.3126472 Z M55.4133042,82.1138726 L57.2494229,86.9386158 L53.576736,86.9386158 L55.4133042,82.1138726 Z M54.7515102,80.3126472 L50.3450951,91.6119803 L51.8134506,91.6119803 L53.0992732,88.2064117 L57.7448693,88.2064117 L59.049125,91.6119803 L60.51793,91.6119803 L56.1110653,80.3126472 L54.7515102,80.3126472 Z M41.8766496,91.6119803 L45.40367,82.9973651 L45.40367,91.6119803 L46.7794102,91.6119803 L46.7794102,80.3126472 L45.2022544,80.3126472 L41.3991868,89.5872912 L37.5776861,80.3126472 L35.9452309,80.3126472 L35.9452309,91.6119803 L37.3205216,91.6119803 L37.3205216,82.9973651 L40.8844082,91.6119803 L41.8766496,91.6119803 Z M23.8405151,88.6686572 C24.2635777,90.6564027 25.9328991,91.7773254 28.1745465,91.7773254 C30.4161938,91.7773254 32.0675317,90.546473 32.0675317,88.5033121 C32.0675317,86.9007711 31.0591051,85.9249196 29.2589535,85.4653774 L27.3293204,84.9675399 C26.1531974,84.6553215 25.5282696,84.1948782 25.5282696,83.2374985 C25.5282696,82.0778301 26.520511,81.3781545 27.8625322,81.3781545 C29.3502199,81.3781545 30.1958955,82.1147737 30.5452257,83.1266677 L31.9942488,83.1266677 C31.572535,81.3412109 30.1958955,80.1473021 27.8625322,80.1473021 C25.7301348,80.1473021 24.1534285,81.4335699 24.1534285,83.3474282 C24.1534285,85.0598989 25.2904374,85.8519335 26.8518576,86.2565109 L28.8732067,86.7908414 C30.1774624,87.1224327 30.6738079,87.6928057 30.6738079,88.5762982 C30.6738079,89.8283256 29.6447003,90.546473 28.1745465,90.546473 C26.7965583,90.546473 25.7301348,89.9206846 25.3084209,88.6686572 L23.8405151,88.6686572 Z M16.1440127,82.1138726 L17.9801314,86.9386158 L14.3069948,86.9386158 L16.1440127,82.1138726 Z M15.4826683,80.3126472 L11.0758036,91.6119803 L12.544159,91.6119803 L13.8299816,88.2064117 L18.4760273,88.2064117 L19.7798334,91.6119803 L21.249088,91.6119803 L16.8417737,80.3126472 L15.4826683,80.3126472 Z M0.000195379538,81.598915 L3.93094604,81.598915 L3.93094604,91.6119803 L5.3795196,91.6119803 L5.3795196,81.598915 L9.31027025,81.598915 L9.31027025,80.3126472 L0.000195379538,80.3126472 L0.000195379538,81.598915 Z" id="Fill-7" fill="#494445"></path>
            </g>
        </g>
    </g>
</svg>